<?xml version="1.0" ?><!DOCTYPE svg  PUBLIC '-//W3C//DTD SVG 1.1//EN'  'http://www.w3.org/Graphics/SVG/1.1/DTD/svg11.dtd'><svg enable-background="new 0 0 128 128" id="Слой_1" version="1.1" viewBox="0 0 128 128" xml:space="preserve" xmlns="http://www.w3.org/2000/svg" xmlns:xlink="http://www.w3.org/1999/xlink"><g><g><g><g><path d="M115.2,124.5H31.8c-4.6,0-8.3-3.7-8.3-8.3v-50c0-4.6,3.7-8.3,8.3-8.3h83.3c4.6,0,8.3,3.7,8.3,8.3v50      C123.5,120.8,119.8,124.5,115.2,124.5z" fill="#D4D3DA"/></g></g><g><g><g><path d="M27.2,69.5c0-4.6,3.7-8.3,8.3-8.3l83.3-1.7c1.2,0,2.4,1.9,3.4,2.4c-1.5-2.4-4.1-4.1-7.1-4.1H31.8       c-4.6,0-8.3,3.7-8.3,8.3v50c0,3.4,2,6.3,4.9,7.6c-0.7-1.3-2.9-2.7-2.9-4.3L27.2,69.5z" fill="#FFFFFF"/></g></g></g><g><g><rect fill="#F8F7FB" height="41.7" width="83.3" x="31.8" y="82.8"/></g></g><g><g><g><polyline fill="#ABA5AE" points="74.7,82.8 74.7,103.7 70.6,103.7 70.6,82.8      "/></g></g></g><g><g><g><polyline fill="#ABA5AE" points="89.7,82.8 89.7,103.7 85.6,103.7 85.6,82.8      "/></g></g></g><g><g><g><polyline fill="#ABA5AE" points="103.9,82.8 103.9,103.7 99.7,103.7 99.7,82.8      "/></g></g></g><g><g><g><polyline fill="#ABA5AE" points="60.6,82.8 60.6,103.7 56.4,103.7 56.4,82.8      "/></g></g></g><g><g><g><polyline fill="#ABA5AE" points="46.4,82.8 46.4,103.7 42.2,103.7 42.2,82.8      "/></g></g></g><g><g><rect fill="#E2DCC7" height="8.3" width="16.7" x="64.7" y="67"/></g></g><g><g><circle cx="91.4" cy="71.2" fill="#FFFFFF" r="4.2"/></g></g><g><g><circle cx="108.1" cy="71.2" fill="#FFFFFF" r="4.2"/></g></g><g><g><path d="M115.2,126H31.8c-5.4,0-9.8-4.4-9.8-9.8v-50c0-5.4,4.4-9.8,9.8-9.8h83.3c5.4,0,9.8,4.4,9.8,9.8v50      C125,121.6,120.6,126,115.2,126z M31.8,59.3c-3.8,0-6.8,3.1-6.8,6.8v50c0,3.8,3.1,6.8,6.8,6.8h83.3c3.8,0,6.8-3.1,6.8-6.8v-50      c0-3.8-3.1-6.8-6.8-6.8H31.8z" fill="#BEADBC"/></g></g><g><g><path d="M115.2,126H31.8c-0.8,0-1.5-0.7-1.5-1.5V82.8c0-0.8,0.7-1.5,1.5-1.5h83.3c0.8,0,1.5,0.7,1.5,1.5v41.7      C116.7,125.3,116,126,115.2,126z M33.3,123h80.3V84.3H33.3V123z" fill="#BEADBC"/></g></g><g><g><g><path d="M74.7,105.2h-4.2c-0.8,0-1.5-0.7-1.5-1.5V82.8c0-0.8,0.7-1.5,1.5-1.5s1.5,0.7,1.5,1.5v19.3h1.2V82.8       c0-0.8,0.7-1.5,1.5-1.5c0.8,0,1.5,0.7,1.5,1.5v20.8C76.2,104.5,75.6,105.2,74.7,105.2z" fill="#BEADBC"/></g></g><g><g><path d="M72.7,126c-0.8,0-1.5-0.7-1.5-1.5v-20.8c0-0.8,0.7-1.5,1.5-1.5s1.5,0.7,1.5,1.5v20.8       C74.2,125.3,73.5,126,72.7,126z" fill="#BEADBC"/></g></g></g><g><g><g><path d="M89.7,105.2h-4.2c-0.8,0-1.5-0.7-1.5-1.5V82.8c0-0.8,0.7-1.5,1.5-1.5s1.5,0.7,1.5,1.5v19.3h1.2V82.8       c0-0.8,0.7-1.5,1.5-1.5s1.5,0.7,1.5,1.5v20.8C91.2,104.5,90.6,105.2,89.7,105.2z" fill="#BEADBC"/></g></g><g><g><path d="M87.7,126c-0.8,0-1.5-0.7-1.5-1.5v-20.8c0-0.8,0.7-1.5,1.5-1.5s1.5,0.7,1.5,1.5v20.8       C89.2,125.3,88.5,126,87.7,126z" fill="#BEADBC"/></g></g></g><g><g><g><path d="M103.9,105.2h-4.2c-0.8,0-1.5-0.7-1.5-1.5V82.8c0-0.8,0.7-1.5,1.5-1.5s1.5,0.7,1.5,1.5v19.3h1.2V82.8       c0-0.8,0.7-1.5,1.5-1.5s1.5,0.7,1.5,1.5v20.8C105.4,104.5,104.7,105.2,103.9,105.2z" fill="#BEADBC"/></g></g><g><g><path d="M101.8,126c-0.8,0-1.5-0.7-1.5-1.5v-20.8c0-0.8,0.7-1.5,1.5-1.5s1.5,0.7,1.5,1.5v20.8       C103.3,125.3,102.7,126,101.8,126z" fill="#BEADBC"/></g></g></g><g><g><g><path d="M60.6,105.2h-4.2c-0.8,0-1.5-0.7-1.5-1.5V82.8c0-0.8,0.7-1.5,1.5-1.5s1.5,0.7,1.5,1.5v19.3h1.2V82.8       c0-0.8,0.7-1.5,1.5-1.5s1.5,0.7,1.5,1.5v20.8C62.1,104.5,61.4,105.2,60.6,105.2z" fill="#BEADBC"/></g></g><g><g><path d="M58.5,126c-0.8,0-1.5-0.7-1.5-1.5v-20.8c0-0.8,0.7-1.5,1.5-1.5s1.5,0.7,1.5,1.5v20.8       C60,125.3,59.3,126,58.5,126z" fill="#BEADBC"/></g></g></g><g><g><g><path d="M46.4,105.2h-4.2c-0.8,0-1.5-0.7-1.5-1.5V82.8c0-0.8,0.7-1.5,1.5-1.5s1.5,0.7,1.5,1.5v19.3h1.2V82.8       c0-0.8,0.7-1.5,1.5-1.5s1.5,0.7,1.5,1.5v20.8C47.9,104.5,47.2,105.2,46.4,105.2z" fill="#BEADBC"/></g></g><g><g><path d="M44.3,126c-0.8,0-1.5-0.7-1.5-1.5v-20.8c0-0.8,0.7-1.5,1.5-1.5s1.5,0.7,1.5,1.5v20.8       C45.8,125.3,45.2,126,44.3,126z" fill="#BEADBC"/></g></g></g><g><g><path d="M81.4,76.8H64.7c-0.8,0-1.5-0.7-1.5-1.5V67c0-0.8,0.7-1.5,1.5-1.5h16.7c0.8,0,1.5,0.7,1.5,1.5v8.3      C82.9,76.2,82.2,76.8,81.4,76.8z M66.2,73.8h13.7v-5.3H66.2V73.8z" fill="#BEADBC"/></g></g><g><g><path d="M54.7,76.8c-0.8,0-1.5-0.7-1.5-1.5V67c0-0.8,0.7-1.5,1.5-1.5s1.5,0.7,1.5,1.5v8.3      C56.2,76.2,55.6,76.8,54.7,76.8z" fill="#BEADBC"/></g></g><g><g><path d="M46.4,76.8c-0.8,0-1.5-0.7-1.5-1.5V67c0-0.8,0.7-1.5,1.5-1.5s1.5,0.7,1.5,1.5v8.3      C47.9,76.2,47.2,76.8,46.4,76.8z" fill="#BEADBC"/></g></g><g><g><path d="M38.1,76.8c-0.8,0-1.5-0.7-1.5-1.5V67c0-0.8,0.7-1.5,1.5-1.5s1.5,0.7,1.5,1.5v8.3      C39.6,76.2,38.9,76.8,38.1,76.8z" fill="#BEADBC"/></g></g><g><g><path d="M39.7,73.5h-3.3c-0.8,0-1.5-0.7-1.5-1.5s0.7-1.5,1.5-1.5h3.3c0.8,0,1.5,0.7,1.5,1.5S40.6,73.5,39.7,73.5      z" fill="#BEADBC"/></g></g><g><g><path d="M48.1,70.2h-3.3c-0.8,0-1.5-0.7-1.5-1.5s0.7-1.5,1.5-1.5h3.3c0.8,0,1.5,0.7,1.5,1.5S48.9,70.2,48.1,70.2      z" fill="#BEADBC"/></g></g><g><g><path d="M56.4,75.2h-3.3c-0.8,0-1.5-0.7-1.5-1.5s0.7-1.5,1.5-1.5h3.3c0.8,0,1.5,0.7,1.5,1.5S57.2,75.2,56.4,75.2      z" fill="#BEADBC"/></g></g><g><g><path d="M91.4,76.8c-3.1,0-5.7-2.5-5.7-5.7s2.5-5.7,5.7-5.7c3.1,0,5.7,2.5,5.7,5.7S94.5,76.8,91.4,76.8z       M91.4,68.5c-1.5,0-2.7,1.2-2.7,2.7s1.2,2.7,2.7,2.7c1.5,0,2.7-1.2,2.7-2.7S92.9,68.5,91.4,68.5z" fill="#BEADBC"/></g></g><g><g><path d="M108.1,76.8c-3.1,0-5.7-2.5-5.7-5.7s2.5-5.7,5.7-5.7c3.1,0,5.7,2.5,5.7,5.7S111.2,76.8,108.1,76.8z       M108.1,68.5c-1.5,0-2.7,1.2-2.7,2.7s1.2,2.7,2.7,2.7c1.5,0,2.7-1.2,2.7-2.7S109.6,68.5,108.1,68.5z" fill="#BEADBC"/></g></g></g><g><g><g opacity="0.15"><path d="M73.1,61.2c0.4-1.1,0.6-2.2,0.9-3.4H31.8c-4.6,0-8.3,3.7-8.3,8.3v50c0,4.6,3.7,8.3,8.3,8.3h38      c2.5-1.9,4.8-4.1,6.6-6.8c5.3-7.7,6.5-17.5,3.3-26.3l0-0.1l-7.7-18.4c-0.9-2.2-1-4.6-0.3-6.8L73.1,61.2z" fill="#62345B"/></g><g><path d="M33.9,37.5c0,2.8-2.4,5.1-5.2,5.1h-0.9c-5.3,0-9.6-4.3-9.6-9.6v-3.5c0-3.3-4.5-4.4-6-1.4      c-2.8,5.6-3.4,12-1.6,18L15,60.7c1.3,4.2,1.1,8.7-0.4,12.7L7,93.6C1.4,108.3,12.3,124,28.1,124h12.5H53      c15.7,0,26.6-15.7,21.1-30.4l-7.7-18.3c-1.5-3.5-1.6-7.3-0.5-10.9l1.5-4.9c2-6.3,2-13,0-19.3h0c-0.8-2.5-4.6-2-4.6,0.7      c0,6.4-5.2,11.6-11.6,11.6c-2.3,0-4.1-1.8-4.1-4.1L46.1,2H34.8L33.9,37.5z" fill="#E6E985"/></g></g><g><g><g><path d="M9.7,93.6l7.6-20.2c1.5-4.1,1.7-8.6,0.4-12.7l-4.4-14.6c-1.8-6-1.2-12.5,1.6-18       c0.3-0.7,0.8-1.1,1.4-1.4c-1.4-0.7-3.3-0.3-4.2,1.4c-2.8,5.6-3.4,12-1.6,18L15,60.7c1.3,4.2,1.1,8.7-0.4,12.7L7,93.6       C1.4,108.3,12.3,124,28.1,124h2.8C15.1,124,4.2,108.3,9.7,93.6z" fill="#FFFFFF"/></g></g></g><g><g><path d="M68.5,103.1c-0.8,0-1.6-0.3-2.2-0.8l-4.8-3.7c-2.9-2.2-6.6-3.5-10.3-3.5H35c-3.8,0-7.3-1.7-9.4-4.6      c-2.1-3-2.7-6.7-1.5-10.1l3.3-8.5c2.4-6.3,2.9-13.1,1.4-19.7l-0.2-0.7c-0.2-1.1,0-2.1,0.7-2.9c0.7-0.8,1.7-1.3,2.7-1.3      c0.6,0,1.1,0.1,1.6,0.4l4.1,2.2c3.4,1.9,10.5,5.4,13.5,5.4c2.8,0,5.5-0.8,7.8-2.3c0.7-0.4,1.4-0.6,2.2-0.6      c1.2,0,2.4,0.6,3.2,1.6c0.8,1,1,2.3,0.7,3.6c-0.1,0.4-0.2,0.8-0.4,1.2l-1.5,4.9c-1.3,4.2-1.1,8.8,0.6,12.8l7.7,18.3      c0.6,1.7,0.9,3.5,0.7,5.2C72.1,101.6,70.5,103.1,68.5,103.1z" fill="#FFFFFF"/></g></g><g><g><path d="M33.9,54c0,1,0.8,1.9,1.8,1.9h9.5c1,0,1.9-0.9,1.8-1.9L46,2H35.1L33.9,54z" fill="#FFE3C1"/></g></g><g><g><path d="M45.6,54.1c0,0.1-0.1,0.2-0.1,0.2s-0.1,0.1-0.2,0.1h-9.5c-0.1,0-0.2-0.1-0.2-0.1c0,0-0.1-0.1-0.1-0.2      L36.6,2h-3l-1.1,52c0,0.9,0.3,1.8,1,2.4c0.6,0.6,1.5,1,2.4,1h9.5c0.9,0,1.8-0.4,2.4-1c0.6-0.6,1-1.5,1-2.4L47.5,2h-3L45.6,54.1z      " fill="#62355C"/></g></g><g><g><rect fill="#62355C" height="3" width="10.1" x="35.4" y="6.8"/></g></g><g><g><rect fill="#62355C" height="3" width="10.1" x="35.4" y="19.7"/></g></g><g><g><rect fill="#62355C" height="3" width="11.1" x="35" y="41.4"/></g></g><g><g><rect fill="#62355C" height="3" width="11.1" x="35" y="46"/></g></g><g><g><rect fill="#62355C" height="3" width="12" x="34.5" y="13.2"/></g></g><g><g><rect fill="#62355C" height="3" width="12" x="34.5" y="25.2"/></g></g><g><g><rect fill="#62355C" height="3" width="12" x="34.5" y="30.8"/></g></g><g><g><rect fill="#62355C" height="3" width="12" x="34.5" y="36.3"/></g></g><g><g><rect fill="#62355C" height="3" width="12" x="34.5" y="50.1"/></g></g><g><g><path d="M53,125.5H28.1c-8,0-15.2-3.8-19.7-10.3c-4.6-6.6-5.6-14.6-2.7-22.1l7.6-20.2c1.4-3.8,1.5-7.9,0.4-11.8      L9.1,46.5c-1.9-6.4-1.3-13.2,1.7-19.1c1-2,3.1-2.9,5.2-2.4c2.1,0.5,3.6,2.3,3.6,4.5V33c0,4.5,3.6,8.1,8.1,8.1h0.9      c2.2,0,4.1-1.7,4.1-3.6l3,0c-0.1,3.5-3.3,6.5-7.1,6.5h-0.9c-6.1,0-11.1-5-11.1-11.1v-3.5c0-1-0.7-1.5-1.3-1.6      c-0.6-0.1-1.4,0-1.9,0.9C10.8,34,10.3,40,12,45.6l4.4,14.6c1.3,4.5,1.2,9.3-0.5,13.7L8.4,94.1c-2.5,6.6-1.6,13.6,2.4,19.4      c4,5.8,10.3,9,17.3,9H53c7,0,13.3-3.3,17.3-9c4-5.8,4.9-12.8,2.4-19.4L65,75.8c-1.6-3.8-1.8-8-0.5-12L66,59      c1.9-6,1.9-12.4,0-18.4c-0.2-0.6-0.7-0.6-0.9-0.6c-0.2,0-0.7,0.2-0.7,0.8c0,7.2-5.9,13.1-13.1,13.1c-3.2,0-5.8-2.5-5.8-5.5l3,0      c0,1.4,1.3,2.6,2.8,2.6c5.6,0,10.1-4.5,10.1-10.1c0-1.9,1.3-3.5,3.3-3.8c1.9-0.3,3.7,0.8,4.2,2.6c2.1,6.6,2.1,13.6,0,20.2      l-1.5,4.9c-1,3.2-0.9,6.8,0.5,9.9L75.4,93c2.8,7.5,1.8,15.6-2.7,22.2C68.2,121.7,61,125.5,53,125.5z" fill="#62355C"/></g></g><g><g><path d="M48.4,63.1H32.7c-0.8,0-1.4-0.6-1.4-1.4l0,0c0-0.8,0.6-1.4,1.4-1.4h15.7c0.8,0,1.4,0.6,1.4,1.4l0,0      C49.7,62.5,49.1,63.1,48.4,63.1z" fill="#7E7784"/></g></g><g><g><path d="M48.4,74.1H32.7c-0.8,0-1.4-0.6-1.4-1.4l0,0c0-0.8,0.6-1.4,1.4-1.4h15.7c0.8,0,1.4,0.6,1.4,1.4l0,0      C49.7,73.5,49.1,74.1,48.4,74.1z" fill="#7E7784"/></g></g><g><g><path d="M48.4,87.1H32.7c-0.8,0-1.4-0.6-1.4-1.4v0c0-0.8,0.6-1.4,1.4-1.4h15.7c0.8,0,1.4,0.6,1.4,1.4v0      C49.7,86.4,49.1,87.1,48.4,87.1z" fill="#7E7784"/></g></g><g><g><path d="M48.2,98.4l-14.8,2.2c-1.1,0.2-2.1-0.7-2.1-1.8v-5.2c0-1,0.8-1.8,1.8-1.8h14.8c1,0,1.8,0.8,1.8,1.8v3      C49.7,97.4,49.1,98.2,48.2,98.4z" fill="#7E7784"/></g></g><g><g><path d="M33.1,102.1c-1.8,0-3.3-1.5-3.3-3.3v-5.2c0-1.8,1.5-3.3,3.3-3.3h14.8c1.8,0,3.3,1.5,3.3,3.3v3      c0,1.7-1.2,3.1-2.8,3.3l-14.8,2.2C33.5,102.1,33.3,102.1,33.1,102.1z M33.1,93.2c-0.2,0-0.3,0.2-0.3,0.3v5.2      c0,0.2,0.2,0.3,0.3,0.3l0.1,0l14.8-2.2c0.2,0,0.3-0.2,0.3-0.3v-3c0-0.2-0.2-0.3-0.3-0.3H33.1z" fill="#62355C"/></g></g><g><g><circle cx="60.8" cy="91.6" fill="#7E7784" r="2.8"/></g></g><g><g><circle cx="67.3" cy="97.1" fill="#7E7784" r="2.8"/></g></g><g><g><path d="M51.1,96.3l-2.8-1.1l4.9-11.9c0.3-0.8,0.5-1.6,0.5-2.5v-15h3v15c0,1.3-0.2,2.5-0.7,3.6L51.1,96.3z" fill="#62355C"/></g></g><g><g><circle cx="40.5" cy="5.1" fill="#FFFFFF" r="0.9"/></g></g><g><g><circle cx="40.5" cy="35" fill="#FFFFFF" r="0.9"/></g></g><g><g><circle cx="40.5" cy="45.2" fill="#FFFFFF" r="0.9"/></g></g><g><g><circle cx="37.7" cy="23.9" fill="#FFFFFF" r="0.9"/></g></g><g><g><circle cx="43.3" cy="23.9" fill="#FFFFFF" r="0.9"/></g></g></g></g></svg>