<?xml version="1.0" ?><!DOCTYPE svg  PUBLIC '-//W3C//DTD SVG 1.1//EN'  'http://www.w3.org/Graphics/SVG/1.1/DTD/svg11.dtd'><svg enable-background="new 0 0 128 128" id="Слой_1" version="1.1" viewBox="0 0 128 128" xml:space="preserve" xmlns="http://www.w3.org/2000/svg" xmlns:xlink="http://www.w3.org/1999/xlink"><g><g><g><g><path d="M99.6,36.3c-3.1,0-5.6-2.6-5.6-5.7v-1c0-5.8,4.7-10.4,10.4-10.4h3.8c3.6,0,4.8-4.8,1.6-6.5      c-6-3.1-13.1-3.7-19.5-1.8l-15.8,4.8c-4.5,1.4-9.4,1.2-13.8-0.5L38.7,7.1c-16-6-33,5.8-33,22.9v13.5V57c0,17.1,17,28.9,33,22.9      l19.9-8.3c3.8-1.6,8-1.8,11.8-0.5l5.3,1.7c6.8,2.1,14.1,2.1,21,0v0c2.8-0.9,2.1-4.9-0.8-4.9c-6.9,0-12.6-5.6-12.6-12.6      c0-2.5,2-4.5,4.4-4.5l35.9-0.8V36.9L99.6,36.3z" fill="#F7C1C8"/></g></g><g><g><g><path d="M38.7,10.1l21.9,8.2c4.4,1.7,9.3,1.8,13.8,0.5L90.3,14c6.5-2,13.5-1.3,19.5,1.8       c0.7,0.4,1.2,0.9,1.5,1.5c0.7-1.5,0.3-3.6-1.5-4.5c-6-3.1-13-3.7-19.5-1.8l-15.8,4.8c-4.5,1.4-9.4,1.2-13.8-0.5L38.7,7.1       c-16-6-33,5.8-33,22.9v3C5.7,15.9,22.8,4.1,38.7,10.1z" fill="#FFFFFF"/></g></g></g><g><g><path d="M28.4,73.9c0-0.9,0.3-1.7,0.8-2.4l4-5.3C35.7,63,37,59,37,55V37.5c0-4.1,1.9-7.9,5-10.2      c3.2-2.3,7.2-2.9,11-1.7l9.3,3.6c6.8,2.6,14.2,3.2,21.4,1.5l0.8-0.2c1.1-0.3,2.3,0,3.2,0.7c0.9,0.7,1.4,1.8,1.4,3      c0,0.6-0.2,1.2-0.4,1.8l-2.4,4.5c-2,3.7-5.8,11.4-5.8,14.6c0,3,0.9,6,2.5,8.5c0.5,0.7,0.7,1.5,0.7,2.3c0,1.3-0.6,2.6-1.7,3.5      c-1.1,0.8-2.5,1.1-3.9,0.8c-0.4-0.1-0.9-0.2-1.3-0.4l-5.3-1.7c-4.6-1.4-9.5-1.2-13.9,0.6l-19.8,8.3c-1.8,0.7-3.7,1-5.6,0.8      C30,77.7,28.4,76,28.4,73.9z" fill="#FFFFFF"/></g></g><g><g><path d="M81.6,36.3c-1.1,0-2,0.9-2,2v10.3c0,1.1,0.9,2,2,2l42.1-0.9V37.2L81.6,36.3z" fill="#FEF3E4"/></g></g><g opacity="0.15"><path d="M87.8,50.7l35.9-0.8v-6.4c-2.6-1.9-5.8-3-9.2-3h-100c-3.2,0-6.2,1-8.8,2.6v0.3V57c0,17.1,17,28.9,33,22.9     l19.9-8.3c3.8-1.6,8-1.8,11.8-0.5l5.3,1.7c6.8,2.1,14.1,2.1,21,0l0,0c2.8-0.9,2.1-4.9-0.8-4.9c-6.9,0-12.6-5.6-12.6-12.6     C83.4,52.7,85.4,50.7,87.8,50.7z" fill="#62345B"/></g><g><g><path d="M71.8,52V35c0-0.8,0.7-1.5,1.5-1.5h0c0.8,0,1.5,0.7,1.5,1.5v17c0,0.8-0.7,1.5-1.5,1.5h0      C72.5,53.5,71.8,52.8,71.8,52z" fill="#BFBBC0"/></g></g><g><g><path d="M59.8,52V35c0-0.8,0.7-1.5,1.5-1.5h0c0.8,0,1.5,0.7,1.5,1.5v17c0,0.8-0.7,1.5-1.5,1.5h0      C60.5,53.5,59.8,52.8,59.8,52z" fill="#BFBBC0"/></g></g><g><g><path d="M45.8,52V35c0-0.8,0.7-1.5,1.5-1.5h0c0.8,0,1.5,0.7,1.5,1.5v17c0,0.8-0.7,1.5-1.5,1.5h0      C46.5,53.5,45.8,52.8,45.8,52z" fill="#BFBBC0"/></g></g><g><g><path d="M33.6,51.8l-2.4-16c-0.2-1.2,0.8-2.3,2-2.3h5.7c1.1,0,2,0.9,2,2v16c0,1.1-0.9,2-2,2h-3.3      C34.5,53.5,33.7,52.7,33.6,51.8z" fill="#BFBBC0"/></g></g><g><g><circle cx="40.9" cy="65.5" fill="#BFBBC0" r="3"/></g></g><g><g><circle cx="34.9" cy="72.5" fill="#BFBBC0" r="3"/></g></g><g><g><path d="M123.7,38.7v-3l-24.2-0.5c-2.1,0-4-2.2-4-4.6v-1c0-4.9,4-8.9,8.9-8.9h3.8c2.3,0,4.2-1.5,4.8-3.8      c0.5-2.3-0.5-4.5-2.5-5.5c-6.4-3.3-13.8-3.9-20.7-1.9L74,14.3c-4.2,1.3-8.8,1.1-12.9-0.4L39.3,5.7c-8.1-3-16.8-1.9-23.9,3      C8.3,13.6,4.2,21.3,4.2,30v27c0,8.6,4.1,16.4,11.2,21.3c7.1,4.9,15.8,6,23.9,2.9l19.9-8.3c3.4-1.4,7.3-1.6,10.8-0.5l5.3,1.7      c7.1,2.2,14.7,2.2,21.9,0c1.9-0.6,3.1-2.4,2.8-4.5c-0.3-2-1.9-3.4-4-3.4c-6.1,0-11.1-5-11.1-11.1c0-1.7,1.3-3.1,2.9-3.2      l35.9-0.8v-3l-5,0.1v-9.7L123.7,38.7z M81.6,49.1c-0.2,0-0.3-0.1-0.4-0.1c-0.1-0.1-0.2-0.2-0.2-0.4V38.3c0-0.2,0.1-0.3,0.2-0.4      c0.1-0.1,0.2-0.1,0.4-0.1l1.1,0v11.2L81.6,49.1z M85.7,49V37.9l1.5,0v11L85.7,49z M90.2,38l2,0v10.8l-2,0V38z M95.2,38.1      l2.5,0.1v10.6l-2.5,0.1V38.1z M100.7,38.3l3,0.1v10.3l-3,0.1V38.3z M106.7,38.4l3,0.1v10.1l-3,0.1V38.4z M96,69.2      c0.8,0,1,0.6,1,0.9c0,0.3,0.1,0.9-0.7,1.1c-6.6,2.1-13.5,2.1-20.1,0l-5.3-1.7c-4.2-1.3-8.8-1.1-12.9,0.6l-19.8,8.3      c-7.1,2.7-14.8,1.7-21.1-2.6C10.8,71.5,7.2,64.6,7.2,57V30c0-7.6,3.6-14.5,9.9-18.8c6.3-4.3,14-5.3,21.1-2.6l21.9,8.2      c4.7,1.8,10,1.9,14.8,0.5l15.8-4.8c6.2-1.9,12.7-1.3,18.4,1.7c1,0.5,1.2,1.4,1,2.2s-0.8,1.5-1.9,1.5h-3.8      c-6.6,0-11.9,5.4-11.9,11.9v1c0,1.6,0.5,3.2,1.4,4.5l-12.3-0.3c-0.9,0-1.8,0.3-2.5,1c-0.7,0.7-1.1,1.6-1.1,2.5v10.3      c0,0.9,0.4,1.8,1.1,2.5c0.7,0.7,1.6,1,2.5,1l1.1,0c-0.5,0.9-0.8,1.9-0.8,3.1C81.9,62.9,88.2,69.2,96,69.2z M115.7,48.4l-3,0.1      v-9.9l3,0.1V48.4z" fill="#AF9BAC"/></g><g><path d="M49.9,57.4l-8.5-3.5c0.6-0.6,1-1.5,1-2.4v-16c0-1.9-1.6-3.5-3.5-3.5h-5.7c-1.9,0-3.5,1.6-3.5,3.5      c0,0.2,0,0.3,0,0.5l2.4,16c0.3,1.7,1.7,3,3.5,3h0.5l12.6,5.2c1.2,0.5,2.5,0.8,3.9,0.8h16.3v-3H52.6C51.6,58,50.7,57.8,49.9,57.4      z M35,51.5l-2.4-16c0-0.3,0.2-0.6,0.5-0.6h5.7c0.3,0,0.5,0.2,0.5,0.5v16c0,0.3-0.2,0.5-0.5,0.5h-3.3C35.3,52,35.1,51.8,35,51.5z      " fill="#AF9BAC"/></g></g><g><g><circle cx="102.2" cy="43.5" fill="#FFFFFF" r="1"/></g></g><g><g><circle cx="91.2" cy="43.5" fill="#FFFFFF" r="1"/></g></g><g><g><circle cx="114.2" cy="40.5" fill="#FFFFFF" r="1"/></g></g><g><g><circle cx="114.2" cy="46.5" fill="#FFFFFF" r="1"/></g></g></g><g><g><g><path d="M114.5,126.5h-100c-5.5,0-10-4.5-10-10v-60c0-5.5,4.5-10,10-10h100c5.5,0,10,4.5,10,10v60      C124.5,122,120,126.5,114.5,126.5z" fill="#AAA3B2"/></g><g><g><path d="M9,60.5c0-5.5,4.5-10,10-10l100-2c1.5,0,2.8,2.3,4.1,2.9c-1.7-2.9-4.9-4.9-8.6-4.9h-100       c-5.5,0-10,4.5-10,10v60c0,4.1,2.4,7.6,5.9,9.1c-0.9-1.5-3.4-3.2-3.4-5.1L9,60.5z" fill="#FFFFFF"/></g></g><g><rect fill="#F8F7FB" height="50" width="100" x="14.5" y="76.5"/></g><g><g><polyline fill="#79737F" points="66,76.5 66,101.5 61,101.5 61,76.5      "/></g></g><g><g><polyline fill="#79737F" points="84,76.5 84,101.5 79,101.5 79,76.5      "/></g></g><g><g><polyline fill="#79737F" points="101,76.5 101,101.5 96,101.5 96,76.5      "/></g></g><g><g><polyline fill="#79737F" points="49,76.5 49,101.5 44,101.5 44,76.5      "/></g></g><g><g><polyline fill="#79737F" points="32,76.5 32,101.5 27,101.5 27,76.5      "/></g></g><g opacity="0.1"><rect fill="#0C0F13" height="4" width="100" x="14.5" y="76.5"/></g><g><rect fill="#F2E7AC" height="10" width="20" x="54" y="57.5"/></g><g><circle cx="86" cy="62.5" fill="#FFFFFF" r="5"/></g><g><circle cx="106" cy="62.5" fill="#FFFFFF" r="5"/></g><g><g><path d="M114.5,45h-100C8.2,45,3,50.2,3,56.5v60c0,6.3,5.2,11.5,11.5,11.5h100c6.3,0,11.5-5.2,11.5-11.5v-60       C126,50.2,120.8,45,114.5,45z M30.5,78v22h-2V78H30.5z M42.5,78v23.5c0,0.8,0.7,1.5,1.5,1.5h1v22H31v-22h1       c0.8,0,1.5-0.7,1.5-1.5V78H42.5z M47.5,78v22h-2V78H47.5z M59.5,78v23.5c0,0.8,0.7,1.5,1.5,1.5h1v22H48v-22h1       c0.8,0,1.5-0.7,1.5-1.5V78H59.5z M64.5,78v22h-2V78H64.5z M77.5,78v23.5c0,0.8,0.7,1.5,1.5,1.5h1v22H65v-22h1       c0.8,0,1.5-0.7,1.5-1.5V78H77.5z M82.5,78v22h-2V78H82.5z M94.5,78v23.5c0,0.8,0.7,1.5,1.5,1.5h1v22H83v-22h1       c0.8,0,1.5-0.7,1.5-1.5V78H94.5z M99.5,78v22h-2V78H99.5z M113,78v47h-13v-22h1c0.8,0,1.5-0.7,1.5-1.5V78H113z M27,103h1v22H16       V78h9.5v23.5C25.5,102.3,26.2,103,27,103z M123,116.5c0,4.2-3,7.6-7,8.4V76.5c0-0.8-0.7-1.5-1.5-1.5h-100       c-0.8,0-1.5,0.7-1.5,1.5v48.4c-4-0.7-7-4.2-7-8.4v-60c0-4.7,3.8-8.5,8.5-8.5h100c4.7,0,8.5,3.8,8.5,8.5V116.5z" fill="#62355C"/></g><g><path d="M74,56H54c-0.8,0-1.5,0.7-1.5,1.5v10c0,0.8,0.7,1.5,1.5,1.5h20c0.8,0,1.5-0.7,1.5-1.5v-10       C75.5,56.7,74.8,56,74,56z M72.5,66h-17v-7h17V66z" fill="#62355C"/></g><g><path d="M24,62h-0.5v-4.5c0-0.8-0.7-1.5-1.5-1.5s-1.5,0.7-1.5,1.5V62H20c-0.8,0-1.5,0.7-1.5,1.5S19.2,65,20,65       h0.5v2.5c0,0.8,0.7,1.5,1.5,1.5s1.5-0.7,1.5-1.5V65H24c0.8,0,1.5-0.7,1.5-1.5S24.8,62,24,62z" fill="#62355C"/></g><g><path d="M34,58h-0.5v-0.5c0-0.8-0.7-1.5-1.5-1.5s-1.5,0.7-1.5,1.5V58H30c-0.8,0-1.5,0.7-1.5,1.5S29.2,61,30,61       h0.5v6.5c0,0.8,0.7,1.5,1.5,1.5s1.5-0.7,1.5-1.5V61H34c0.8,0,1.5-0.7,1.5-1.5S34.8,58,34,58z" fill="#62355C"/></g><g><path d="M44,64h-0.5v-6.5c0-0.8-0.7-1.5-1.5-1.5s-1.5,0.7-1.5,1.5V64H40c-0.8,0-1.5,0.7-1.5,1.5S39.2,67,40,67       h0.5v0.5c0,0.8,0.7,1.5,1.5,1.5s1.5-0.7,1.5-1.5V67H44c0.8,0,1.5-0.7,1.5-1.5S44.8,64,44,64z" fill="#62355C"/></g><g><path d="M86,56c-3.6,0-6.5,2.9-6.5,6.5S82.4,69,86,69s6.5-2.9,6.5-6.5S89.6,56,86,56z M86,66       c-1.9,0-3.5-1.6-3.5-3.5S84.1,59,86,59s3.5,1.6,3.5,3.5S87.9,66,86,66z" fill="#62355C"/></g><g><path d="M106,56c-3.6,0-6.5,2.9-6.5,6.5s2.9,6.5,6.5,6.5s6.5-2.9,6.5-6.5S109.6,56,106,56z M106,66       c-1.9,0-3.5-1.6-3.5-3.5s1.6-3.5,3.5-3.5s3.5,1.6,3.5,3.5S107.9,66,106,66z" fill="#62355C"/></g></g></g></g></g></svg>