<?xml version="1.0" ?><!DOCTYPE svg  PUBLIC '-//W3C//DTD SVG 1.1//EN'  'http://www.w3.org/Graphics/SVG/1.1/DTD/svg11.dtd'><svg enable-background="new 0 0 128 128" id="Слой_1" version="1.1" viewBox="0 0 128 128" xml:space="preserve" xmlns="http://www.w3.org/2000/svg" xmlns:xlink="http://www.w3.org/1999/xlink"><g><g><path d="M61.5,51.5c-2.5,0-4.5-2-4.5-4.5s2-4.5,4.5-4.5s4.5,2,4.5,4.5S64,51.5,61.5,51.5z M61.5,45.5    c-0.8,0-1.5,0.7-1.5,1.5s0.7,1.5,1.5,1.5S63,47.8,63,47S62.3,45.5,61.5,45.5z" fill="#46B8C4"/></g><g><path d="M74.5,48.5c-2.5,0-4.5-2-4.5-4.5s2-4.5,4.5-4.5s4.5,2,4.5,4.5S77,48.5,74.5,48.5z M74.5,42.5    c-0.8,0-1.5,0.7-1.5,1.5s0.7,1.5,1.5,1.5S76,44.8,76,44S75.3,42.5,74.5,42.5z" fill="#46B8C4"/></g><g><path d="M64.5,48.5c-0.8,0-1.5-0.7-1.5-1.5V32c0-0.7,0.5-1.3,1.2-1.5l13-3c0.4-0.1,0.9,0,1.3,0.3    c0.4,0.3,0.6,0.7,0.6,1.2v15c0,0.8-0.7,1.5-1.5,1.5S76,44.8,76,44V30.9l-10,2.3V47C66,47.8,65.3,48.5,64.5,48.5z" fill="#46B8C4"/></g><g><path d="M51.5,29.5c-2.5,0-4.5-2-4.5-4.5s2-4.5,4.5-4.5s4.5,2,4.5,4.5S54,29.5,51.5,29.5z M51.5,23.5    c-0.8,0-1.5,0.7-1.5,1.5s0.7,1.5,1.5,1.5S53,25.8,53,25S52.3,23.5,51.5,23.5z" fill="#46B8C4"/></g><g><path d="M48.5,39.5c-0.8,0-1.5-0.7-1.5-1.5V25c0-0.8,0.7-1.5,1.5-1.5S50,24.2,50,25v13    C50,38.8,49.3,39.5,48.5,39.5z" fill="#46B8C4"/></g><g><path d="M91.5,35.5c-2.5,0-4.5-2-4.5-4.5s2-4.5,4.5-4.5s4.5,2,4.5,4.5S94,35.5,91.5,35.5z M91.5,29.5    c-0.8,0-1.5,0.7-1.5,1.5s0.7,1.5,1.5,1.5S93,31.8,93,31S92.3,29.5,91.5,29.5z" fill="#46B8C4"/></g><g><path d="M94.5,32.5c-0.8,0-1.5-0.7-1.5-1.5V18c0-0.8,0.7-1.5,1.5-1.5h5c0.8,0,1.5,0.7,1.5,1.5s-0.7,1.5-1.5,1.5H96    V31C96,31.8,95.3,32.5,94.5,32.5z" fill="#46B8C4"/></g><g><path d="M65.5,25.5c-2.5,0-4.5-2-4.5-4.5s2-4.5,4.5-4.5s4.5,2,4.5,4.5S68,25.5,65.5,25.5z M65.5,19.5    c-0.8,0-1.5,0.7-1.5,1.5s0.7,1.5,1.5,1.5S67,21.8,67,21S66.3,19.5,65.5,19.5z" fill="#46B8C4"/></g><g><path d="M68.5,22.5c-0.8,0-1.5-0.7-1.5-1.5V8c0-0.8,0.7-1.5,1.5-1.5S70,7.2,70,8v13C70,21.8,69.3,22.5,68.5,22.5z" fill="#46B8C4"/></g></g><g><g><g><g><g><path d="M99.6,77.4c-3.1,0-5.6-2.6-5.6-5.7v-1c0-5.8,4.7-10.4,10.4-10.4h3.8c3.6,0,4.8-4.8,1.6-6.5       c-6-3.1-13.1-3.7-19.5-1.8l-15.8,4.8c-4.5,1.4-9.4,1.2-13.8-0.5l-21.9-8.2c-16-6-33,5.8-33,22.9v13.5V98       c0,17.1,17,28.9,33,22.9l19.9-8.3c3.8-1.6,8-1.8,11.8-0.5l5.3,1.7c6.8,2.1,14.1,2.1,21,0v0c2.8-0.9,2.1-4.9-0.8-4.9       c-6.9,0-12.6-5.6-12.6-12.6c0-2.5,2-4.5,4.4-4.5l35.9-0.8V78L99.6,77.4z" fill="#F7C1C8"/></g></g></g><g><g><g><g><path d="M38.7,51.2l21.9,8.2c4.4,1.7,9.3,1.8,13.8,0.5l15.8-4.8c6.5-2,13.5-1.3,19.5,1.8        c0.7,0.4,1.2,0.9,1.5,1.5c0.7-1.5,0.3-3.6-1.5-4.5c-6-3.1-13-3.7-19.5-1.8l-15.8,4.8c-4.5,1.4-9.4,1.2-13.8-0.5l-21.9-8.2        c-16-6-33,5.8-33,22.9v3C5.7,57,22.8,45.2,38.7,51.2z" fill="#FFFFFF"/></g></g></g></g><g><g><g><path d="M28.4,114.9c0-0.9,0.3-1.7,0.8-2.4l4-5.3c2.4-3.2,3.8-7.1,3.8-11.1V78.6c0-4.1,1.9-7.9,5-10.2       c3.2-2.3,7.2-2.9,11-1.7l9.3,3.6c6.8,2.6,14.2,3.2,21.4,1.5l0.8-0.2c1.1-0.3,2.3,0,3.2,0.7c0.9,0.7,1.4,1.8,1.4,3       c0,0.6-0.2,1.2-0.4,1.8l-2.4,4.5c-2,3.7-5.8,11.4-5.8,14.6c0,3,0.9,6,2.5,8.5c0.5,0.7,0.7,1.5,0.7,2.3c0,1.3-0.6,2.6-1.7,3.5       c-1.1,0.8-2.5,1.1-3.9,0.8c-0.4-0.1-0.9-0.2-1.3-0.4l-5.3-1.7c-4.6-1.4-9.5-1.2-13.9,0.6l-19.8,8.3c-1.8,0.7-3.7,1-5.6,0.8       C30,118.8,28.4,117,28.4,114.9z" fill="#FFFFFF"/></g></g></g><g><g><g><path d="M81.6,77.4c-1.1,0-2,0.9-2,2v10.3c0,1.1,0.9,2,2,2l42.1-0.9V78.3L81.6,77.4z" fill="#FEF3E4"/></g></g></g><g><g><g><path d="M71.8,93V76c0-0.8,0.7-1.5,1.5-1.5h0c0.8,0,1.5,0.7,1.5,1.5v17c0,0.8-0.7,1.5-1.5,1.5h0       C72.5,94.5,71.8,93.9,71.8,93z" fill="#BFBBC0"/></g></g></g><g><g><g><path d="M59.8,93V76c0-0.8,0.7-1.5,1.5-1.5h0c0.8,0,1.5,0.7,1.5,1.5v17c0,0.8-0.7,1.5-1.5,1.5h0       C60.5,94.5,59.8,93.9,59.8,93z" fill="#BFBBC0"/></g></g></g><g><g><g><path d="M45.8,93V76c0-0.8,0.7-1.5,1.5-1.5h0c0.8,0,1.5,0.7,1.5,1.5v17c0,0.8-0.7,1.5-1.5,1.5h0       C46.5,94.5,45.8,93.9,45.8,93z" fill="#BFBBC0"/></g></g></g><g><g><g><path d="M33.6,92.8l-2.4-16c-0.2-1.2,0.8-2.3,2-2.3h5.7c1.1,0,2,0.9,2,2v16c0,1.1-0.9,2-2,2h-3.3       C34.5,94.5,33.7,93.8,33.6,92.8z" fill="#BFBBC0"/></g></g></g><g><g><g><circle cx="40.9" cy="106.5" fill="#BFBBC0" r="3"/></g></g></g><g><g><g><circle cx="34.9" cy="113.5" fill="#BFBBC0" r="3"/></g></g></g><g><g><g><path d="M123.7,79.8v-3l-24.2-0.5c-2.1,0-4-2.2-4-4.6v-1c0-4.9,4-8.9,8.9-8.9h3.8c2.3,0,4.2-1.5,4.8-3.8       c0.5-2.3-0.5-4.5-2.5-5.5c-6.4-3.3-13.8-3.9-20.7-1.9L74,55.4c-4.2,1.3-8.8,1.1-12.9-0.4l-21.9-8.2c-8.1-3-16.8-1.9-23.9,3       C8.3,54.6,4.2,62.4,4.2,71v27c0,8.6,4.1,16.4,11.2,21.3c7.1,4.9,15.8,6,23.9,2.9l19.9-8.3c3.4-1.4,7.3-1.6,10.8-0.5l5.3,1.7       c7.1,2.2,14.7,2.2,21.9,0c1.9-0.6,3.1-2.4,2.8-4.5c-0.3-2-1.9-3.4-4-3.4c-6.1,0-11.1-5-11.1-11.1c0-1.7,1.3-3.1,2.9-3.2       l35.9-0.8v-3l-5,0.1v-9.7L123.7,79.8z M81.6,90.2c-0.2,0-0.3-0.1-0.4-0.1c-0.1-0.1-0.2-0.2-0.2-0.4V79.4c0-0.2,0.1-0.3,0.2-0.4       c0.1-0.1,0.2-0.1,0.4-0.1l1.1,0v11.2L81.6,90.2z M85.7,90.1V79l1.5,0v11L85.7,90.1z M90.2,79.1l2,0V90l-2,0V79.1z M95.2,79.2       l2.5,0.1v10.6l-2.5,0.1V79.2z M100.7,79.3l3,0.1v10.3l-3,0.1V79.3z M106.7,79.4l3,0.1v10.1l-3,0.1V79.4z M96,110.3       c0.8,0,1,0.6,1,0.9c0,0.3,0.1,0.9-0.7,1.1c-6.6,2.1-13.5,2.1-20.1,0l-5.3-1.7c-4.2-1.3-8.8-1.1-12.9,0.6l-19.8,8.3       c-7.1,2.7-14.8,1.7-21.1-2.6c-6.3-4.3-9.9-11.2-9.9-18.8V71c0-7.6,3.6-14.5,9.9-18.8c6.3-4.3,14-5.3,21.1-2.6l21.9,8.2       c4.7,1.8,10,1.9,14.8,0.5l15.8-4.8c6.2-1.9,12.7-1.3,18.4,1.7c1,0.5,1.2,1.4,1,2.2s-0.8,1.5-1.9,1.5h-3.8       c-6.6,0-11.9,5.4-11.9,11.9v1c0,1.6,0.5,3.2,1.4,4.5l-12.3-0.3c-0.9,0-1.8,0.3-2.5,1c-0.7,0.7-1.1,1.6-1.1,2.5v10.3       c0,0.9,0.4,1.8,1.1,2.5c0.7,0.7,1.6,1,2.5,1l1.1,0c-0.5,0.9-0.8,1.9-0.8,3.1C81.9,104,88.2,110.3,96,110.3z M115.7,89.4l-3,0.1       v-9.9l3,0.1V89.4z" fill="#AF9BAC"/></g></g><g><g><path d="M49.9,98.5L41.3,95c0.6-0.6,1-1.5,1-2.4v-16c0-1.9-1.6-3.5-3.5-3.5h-5.7c-1.9,0-3.5,1.6-3.5,3.5       c0,0.2,0,0.3,0,0.5l2.4,16c0.3,1.7,1.7,3,3.5,3h0.5l12.6,5.2c1.2,0.5,2.5,0.8,3.9,0.8h16.3v-3H52.6       C51.6,99,50.7,98.9,49.9,98.5z M35,92.6l-2.4-16c0-0.3,0.2-0.6,0.5-0.6h5.7c0.3,0,0.5,0.2,0.5,0.5v16c0,0.3-0.2,0.5-0.5,0.5       h-3.3C35.3,93,35.1,92.9,35,92.6z" fill="#AF9BAC"/></g></g></g><g><g><g><circle cx="102.2" cy="84.5" fill="#FFFFFF" r="1"/></g></g></g><g><g><g><circle cx="91.2" cy="84.5" fill="#FFFFFF" r="1"/></g></g></g><g><g><g><circle cx="114.2" cy="81.5" fill="#FFFFFF" r="1"/></g></g></g><g><g><g><circle cx="114.2" cy="87.5" fill="#FFFFFF" r="1"/></g></g></g></g></g></svg>